<svg xmlns="http://www.w3.org/2000/svg" viewBox="0 0 511.626 511.627"><path d="M498.208 68.235c-8.945-8.947-19.7-13.418-32.26-13.418H45.682c-12.562 0-23.318 4.47-32.264 13.418S0 87.935 0 100.5v310.633c0 12.566 4.47 23.312 13.418 32.257 8.945 8.953 19.7 13.422 32.264 13.422h420.266c12.56 0 23.315-4.47 32.26-13.422 8.95-8.945 13.418-19.697 13.418-32.257V100.5c-.001-12.564-4.47-23.32-13.42-32.264zm-23.13 342.9c0 2.475-.903 4.616-2.714 6.424s-3.95 2.706-6.42 2.706H45.68c-2.474 0-4.616-.896-6.423-2.706s-2.712-3.95-2.712-6.424V191.858a167.12 167.12 0 0 0 19.7 18.843c51.012 39.21 91.553 71.374 121.627 96.5 9.707 8.186 17.607 14.56 23.697 19.13s14.322 9.185 24.694 13.846c10.373 4.668 20.13 6.99 29.265 6.99h.57c9.134 0 18.894-2.323 29.263-6.99 10.376-4.66 18.613-9.274 24.7-13.846s14-10.944 23.698-19.13c30.074-25.126 70.6-57.29 121.624-96.5 7.043-5.708 13.613-11.99 19.694-18.843v219.267zm0-303.205v3.14c0 11.23-4.42 23.745-13.27 37.543s-18.42 24.792-28.69 32.974L318.62 272.083l-9.996 8.418c-5.514 4.668-9.894 8.24-13.13 10.712-3.24 2.478-7.47 5.475-12.703 8.993s-10.04 6.14-14.418 7.85-8.47 2.562-12.275 2.562h-.57c-3.806 0-7.895-.855-12.275-2.562s-9.185-4.333-14.417-7.85-9.467-6.516-12.703-8.993c-3.234-2.47-7.614-6.044-13.132-10.712l-9.995-8.418-114.487-90.506c-27.98-22.076-41.97-49.106-41.97-81.083 0-2.472.903-4.615 2.712-6.42s3.95-2.714 6.423-2.714H465.95c1.52.855 2.854 1.093 3.997.715 1.143-.385 1.998.33 2.566 2.138s1.095 2.664 1.57 2.57.764 1.093.86 3.57l.137 3.718-.001 3.85z"/></svg>