<svg xmlns="http://www.w3.org/2000/svg" viewBox="0 0 401.998 401.998"><path d="M401.13 311.475c-1.137-3.426-8.37-8.473-21.697-15.13-3.6-2.098-8.754-4.95-15.4-8.566l-18.13-9.996-15.276-8.846c-.76-.57-3.14-2.234-7.136-5-4-2.758-7.375-4.805-10.14-6.14-2.76-1.327-5.473-1.995-8.138-1.995-3.806 0-8.56 2.714-14.268 8.135a139.01 139.01 0 0 0-15.7 17.706c-4.757 6.38-9.802 12.275-15.126 17.7-5.332 5.427-9.713 8.138-13.135 8.138-1.718 0-3.86-.48-6.427-1.424-2.566-.95-4.518-1.766-5.858-2.423-1.328-.67-3.607-2-6.845-4.004l-5.428-3.285c-26.075-14.47-48.438-31.03-67.093-49.676-18.65-18.658-35.21-41.02-49.676-67.097-.2-.38-1.287-2.2-3.284-5.424s-3.333-5.518-4-6.854c-.666-1.33-1.475-3.283-2.425-5.852s-1.427-4.71-1.427-6.424c0-3.424 2.713-7.804 8.138-13.134s11.326-10.373 17.7-15.128a138.95 138.95 0 0 0 17.701-15.699c5.424-5.71 8.136-10.467 8.136-14.273 0-2.663-.666-5.378-1.997-8.137-1.332-2.765-3.378-6.14-6.14-10.138l-5-7.14a627.13 627.13 0 0 1-8.848-15.271l-9.995-18.13-8.564-15.415C98.986 9.233 93.943 1.997 90.516.86 89.183.288 87.183 0 84.52 0c-5.142 0-11.85.95-20.13 2.856s-14.8 3.9-19.558 5.996C35.317 12.847 25.23 24.457 14.57 43.678 4.863 61.566.01 79.27.01 96.78c0 5.135.333 10.13 1 14.99.666 4.853 1.856 10.326 3.57 16.418s3.093 10.614 4.137 13.56l5.852 15.845 5.138 13.988c6.66 18.654 14.56 35.307 23.695 49.964 15.03 24.362 35.54 49.54 61.52 75.52s51.153 46.5 75.517 61.526c14.655 9.134 31.314 17.032 49.965 23.698 1.714.568 6.375 2.28 13.986 5.14l15.845 5.852c2.95 1.048 7.474 2.43 13.56 4.145 6.098 1.715 11.566 2.905 16.42 3.576 4.856.657 9.853.996 14.99.996 17.508 0 35.214-4.856 53.105-14.562 19.22-10.656 30.826-20.745 34.823-30.27 2.102-4.754 4.093-11.273 5.996-19.555 1.91-8.278 2.857-14.985 2.857-20.126.006-2.673-.28-4.668-.855-6.012z"/></svg>