<?xml version="1.0" standalone="no"?>
<!DOCTYPE svg PUBLIC "-//W3C//DTD SVG 20010904//EN"
 "http://www.w3.org/TR/2001/REC-SVG-20010904/DTD/svg10.dtd">
<svg version="1.0" xmlns="http://www.w3.org/2000/svg"
 width="512.000000pt" height="512.000000pt" viewBox="0 0 512.000000 512.000000"
 preserveAspectRatio="xMidYMid meet">
<metadata>
Created by potrace 1.11, written by Peter Selinger 2001-2013
</metadata>
<g transform="translate(0.000000,512.000000) scale(0.100000,-0.100000)"
fill="#000000" stroke="none">
<path d="M317 5112 c-207 -1 -317 -6 -317 -12 0 -12 23 -50 61 -100 14 -19
131 -183 259 -365 129 -181 274 -387 324 -457 50 -70 119 -167 153 -215 34
-48 99 -141 145 -205 46 -65 137 -194 203 -288 66 -94 127 -179 135 -189 8
-11 42 -58 75 -105 33 -47 62 -86 65 -86 3 1 25 30 50 66 25 36 59 84 76 107
17 23 98 137 179 252 285 403 354 500 362 510 5 6 28 38 52 72 l43 62 -48 68
c-26 37 -57 82 -68 98 -12 17 -23 32 -26 35 -3 3 -84 115 -180 250 -96 135
-179 250 -185 257 -5 6 -44 59 -85 117 -41 58 -82 109 -90 113 -18 10 -744 19
-1183 15z"/>
<path d="M3619 5095 c-15 -8 -85 -96 -155 -196 -71 -100 -144 -203 -162 -228
-18 -25 -43 -62 -56 -81 -13 -19 -74 -105 -135 -190 -61 -85 -115 -162 -121
-170 -6 -8 -92 -131 -193 -272 -100 -142 -243 -343 -317 -449 -74 -105 -152
-215 -172 -243 -38 -52 -310 -437 -460 -649 -46 -65 -94 -133 -108 -152 -14
-18 -53 -73 -87 -122 -34 -48 -100 -142 -147 -208 -46 -66 -153 -217 -237
-335 -142 -200 -352 -496 -426 -600 -17 -25 -53 -76 -80 -115 -26 -38 -52 -75
-58 -81 -5 -6 -37 -51 -70 -98 -72 -105 -201 -287 -212 -301 -4 -5 -21 -30
-38 -55 -16 -25 -32 -47 -35 -50 -5 -4 -100 -138 -140 -196 -8 -12 -51 -73
-95 -135 -44 -62 -88 -126 -97 -141 l-18 -28 744 0 744 0 29 24 c15 13 62 72
103 131 41 59 81 113 88 120 6 8 12 18 12 23 0 6 4 12 8 14 4 2 39 48 78 102
87 125 110 157 210 297 45 63 169 238 276 389 192 271 541 763 631 890 25 36
66 94 91 130 25 36 167 236 315 445 148 209 330 465 403 568 73 104 156 220
183 258 28 38 82 114 120 169 39 55 140 198 225 318 85 121 200 283 255 361
118 168 221 312 232 326 5 6 22 30 39 55 17 25 96 138 177 252 81 114 150 214
153 223 6 13 -70 15 -732 15 -622 -1 -743 -3 -765 -15z"/>
<path d="M3547 1798 c-141 -199 -258 -366 -394 -561 -37 -53 -96 -137 -130
-185 -34 -48 -63 -97 -63 -110 0 -38 -18 -11 393 -590 150 -211 239 -328 258
-337 24 -13 131 -15 768 -13 l739 3 -174 245 c-96 135 -187 263 -203 285 -27
40 -298 422 -325 460 -8 11 -109 153 -223 315 -115 162 -229 323 -254 357 -24
34 -87 123 -139 197 -52 75 -98 136 -102 136 -4 0 -72 -91 -151 -202z"/>
</g>
</svg>
